<svg width="162" height="162" viewBox="0 0 162 162" fill="none" xmlns="http://www.w3.org/2000/svg">
<rect width="162" height="162" rx="32" fill="#202123"/>
<path d="M42.3161 78V52.5163H51.8235L55.3847 66.4343L58.9785 52.5163H68.4859V78H59.926L60.1547 64.6374L57.3123 77.2812H53.4897L50.6473 64.6374L50.876 78H42.3161ZM69.5636 78V52.549H80.4758C88.709 52.549 90.5713 54.3132 90.5713 58.3318V60.6188C90.5713 62.6771 90.1466 64.1146 88.5457 64.9641C90.2773 65.8136 90.7673 67.2838 90.7673 69.3747V72.2172C90.7673 76.2357 88.709 78 80.4758 78H69.5636ZM78.6462 62.5464H80.3451C81.1619 62.5464 81.5867 62.4484 81.5867 61.8603V58.6258C81.5867 58.0378 81.1619 57.9397 80.3451 57.9397H78.6462V62.5464ZM78.6462 72.6092H80.4758C81.2599 72.6092 81.6847 72.5112 81.6847 71.9558V68.1332C81.6847 67.5778 81.2599 67.4471 80.4758 67.4471H78.6462V72.6092ZM102.128 52.5163C110.687 52.5163 112.844 54.6399 112.844 58.6258V71.9231C112.844 75.909 110.687 78 102.128 78H91.738V52.5163H102.128ZM103.761 58.9199C103.761 58.2338 103.336 58.1358 102.128 58.1358H100.821V72.4132H102.128C103.336 72.4132 103.761 72.3152 103.761 71.6291V58.9199ZM18.674 110V84.549H29.5863C37.8195 84.549 39.6817 86.3132 39.6817 90.3318V92.6188C39.6817 94.6771 39.257 96.1146 37.6561 96.9641C39.3877 97.8136 39.8778 99.2838 39.8778 101.375V104.217C39.8778 108.236 37.8195 110 29.5863 110H18.674ZM27.7567 94.5464H29.4556C30.2724 94.5464 30.6971 94.4484 30.6971 93.8603V90.6258C30.6971 90.0378 30.2724 89.9397 29.4556 89.9397H27.7567V94.5464ZM27.7567 104.609H29.5863C30.3704 104.609 30.7951 104.511 30.7951 103.956V100.133C30.7951 99.5778 30.3704 99.4471 29.5863 99.4471H27.7567V104.609ZM52.7735 84.5163H61.8562V104.25C61.8562 108.236 59.6999 110.457 51.336 110.457C43.0048 110.457 40.8485 108.236 40.8485 104.25V84.5163H49.9311V103.956C49.9311 104.642 50.3558 104.74 51.336 104.74C52.3488 104.74 52.7735 104.642 52.7735 103.956V84.5163ZM73.3167 84.5163C81.8766 84.5163 84.0329 86.6399 84.0329 90.6258V103.923C84.0329 107.909 81.8766 110 73.3167 110H62.9272V84.5163H73.3167ZM74.9503 90.9199C74.9503 90.2338 74.5255 90.1358 73.3167 90.1358H72.0098V104.413H73.3167C74.5255 104.413 74.9503 104.315 74.9503 103.629V90.9199ZM106.308 93.991H97.225V90.5932C97.225 89.9071 96.8003 89.8091 95.5915 89.8091C94.4153 89.8091 93.9906 89.9071 93.9906 90.5932V103.956C93.9906 104.642 94.4153 104.74 95.7222 104.74C97.029 104.74 97.4537 104.642 97.4537 103.956V100.525H95.6568V95.8533H106.308V104.25C106.308 108.236 104.151 110.457 95.5915 110.457C87.0642 110.457 84.9079 108.236 84.9079 104.25V90.2991C84.9079 86.3132 87.0642 84.0916 95.5915 84.0916C104.151 84.0916 106.308 86.3132 106.308 90.2991V93.991ZM107.276 110V84.549H124.951V90.1358H116.359V94.3831H124.298V99.6105H116.359V104.413H125.278V110H107.276ZM144.803 84.5163V90.1358H139.412V110H130.33V90.1358H124.971V84.5163H144.803Z" fill="#F4FF7B"/>
</svg>
