<svg width="127" height="58" viewBox="0 0 127 58" fill="currentColor" xmlns="http://www.w3.org/2000/svg">
<path d="M23.6421 25.4837V-2.84369e-06H33.1494L36.7106 13.918L40.3045 -2.84369e-06H49.8119V25.4837H41.2519L41.4806 12.1211L38.6382 24.7649H34.8157L31.9733 12.1211L32.202 25.4837H23.6421ZM50.8895 25.4837V0.0326682H61.8018C70.035 0.0326682 71.8972 1.79693 71.8972 5.81551V8.10251C71.8972 10.1608 71.4725 11.5984 69.8716 12.4478C71.6032 13.2973 72.0933 14.7675 72.0933 16.8584V19.7009C72.0933 23.7194 70.035 25.4837 61.8018 25.4837H50.8895ZM59.9722 10.0301H61.6711C62.4879 10.0301 62.9126 9.93211 62.9126 9.34402V6.10955C62.9126 5.52147 62.4879 5.42345 61.6711 5.42345H59.9722V10.0301ZM59.9722 20.0929H61.8018C62.5859 20.0929 63.0106 19.9949 63.0106 19.4395V15.6169C63.0106 15.0615 62.5859 14.9308 61.8018 14.9308H59.9722V20.0929ZM83.4535 -2.84369e-06C92.0134 -2.84369e-06 94.1697 2.12364 94.1697 6.10955V19.4068C94.1697 23.3927 92.0134 25.4837 83.4535 25.4837H73.0639V-2.84369e-06H83.4535ZM85.087 6.40359C85.087 5.7175 84.6623 5.61948 83.4535 5.61948H82.1466V19.8969H83.4535C84.6623 19.8969 85.087 19.7989 85.087 19.1128V6.40359ZM-5.77449e-05 57.4837V32.0327H10.9122C19.1454 32.0327 21.0077 33.7969 21.0077 37.8155V40.1025C21.0077 42.1608 20.5829 43.5984 18.982 44.4478C20.7136 45.2973 21.2037 46.7675 21.2037 48.8584V51.7009C21.2037 55.7194 19.1454 57.4837 10.9122 57.4837H-5.77449e-05ZM9.0826 42.0301H10.7815C11.5983 42.0301 12.023 41.9321 12.023 41.344V38.1096C12.023 37.5215 11.5983 37.4235 10.7815 37.4235H9.0826V42.0301ZM9.0826 52.0929H10.9122C11.6963 52.0929 12.121 51.9949 12.121 51.4395V47.6169C12.121 47.0615 11.6963 46.9308 10.9122 46.9308H9.0826V52.0929ZM34.0995 32H43.1821V51.7335C43.1821 55.7194 41.0258 57.9411 32.6619 57.9411C24.3307 57.9411 22.1744 55.7194 22.1744 51.7335V32H31.257V51.4395C31.257 52.1256 31.6818 52.2236 32.6619 52.2236C33.6747 52.2236 34.0995 52.1256 34.0995 51.4395V32ZM54.6426 32C63.2025 32 65.3589 34.1236 65.3589 38.1096V51.4068C65.3589 55.3927 63.2025 57.4837 54.6426 57.4837H44.2531V32H54.6426ZM56.2762 38.4036C56.2762 37.7175 55.8515 37.6195 54.6426 37.6195H53.3358V51.8969H54.6426C55.8515 51.8969 56.2762 51.7989 56.2762 51.1128V38.4036ZM87.6336 41.4747H78.551V38.0769C78.551 37.3908 78.1262 37.2928 76.9174 37.2928C75.7412 37.2928 75.3165 37.3908 75.3165 38.0769V51.4395C75.3165 52.1256 75.7412 52.2236 77.0481 52.2236C78.3549 52.2236 78.7797 52.1256 78.7797 51.4395V48.009H76.9827V43.337H87.6336V51.7335C87.6336 55.7194 85.4773 57.9411 76.9174 57.9411C68.3902 57.9411 66.2338 55.7194 66.2338 51.7335V37.7828C66.2338 33.7969 68.3902 31.5753 76.9174 31.5753C85.4773 31.5753 87.6336 33.7969 87.6336 37.7828V41.4747ZM88.602 57.4837V32.0327H106.277V37.6195H97.6847V41.8668H105.624V47.0942H97.6847V51.8969H106.604V57.4837H88.602ZM126.129 32V37.6195H120.738V57.4837H111.656V37.6195H106.297V32H126.129Z"/>
</svg>
